<?xml version="1.0" encoding="UTF-8"?>
<svg version="1.1" xmlns="http://www.w3.org/2000/svg" width="94" height="94">
<path d="M0 0 C2.01681524 0.22770495 4.03400689 0.4624704 6.0390625 0.77734375 C8.25930075 1.02944252 9.86888855 0.60888899 12 0 C12.9590625 0.2475 12.9590625 0.2475 13.9375 0.5 C16.06611883 1.16947837 16.06611883 1.16947837 18.5 0.5 C21.16173663 -0.03234733 22.43107563 0.33705178 25 1 C25.66 0.835 26.32 0.67 27 0.5 C29 0 29 0 30.9375 0.5 C33.56131275 1.13607582 35.38558889 0.5882425 38 0 C42 0 42 0 45.9375 0.5625 C49.19220808 1.00051679 51.80151877 0.89957285 55 0 C55 0.66 55 1.32 55 2 C55.99 2.33 56.98 2.66 58 3 C58 22.47 58 41.94 58 62 C59.98 62 61.96 62 64 62 C65.26226416 66.29169814 64.7295879 68.90360761 63 73 C60.35334541 75.64665459 59.11565935 75.26321979 55.42041016 75.29052734 C53.66816635 75.3096669 53.66816635 75.3096669 51.88052368 75.32919312 C50.61284149 75.33141876 49.3451593 75.33364441 48.0390625 75.3359375 C46.74181244 75.3425943 45.44456238 75.3492511 44.10800171 75.35610962 C41.35907669 75.36809416 38.61027743 75.37178933 35.86132812 75.37060547 C32.34149728 75.37040238 28.82247481 75.3976871 25.30283546 75.43214989 C21.94406535 75.45976205 18.5854447 75.45856811 15.2265625 75.4609375 C13.96292877 75.47530853 12.69929504 75.48967957 11.39736938 75.50448608 C10.22290253 75.49833282 9.04843567 75.49217957 7.83837891 75.48583984 C6.2885582 75.4901149 6.2885582 75.4901149 4.70742798 75.49447632 C1.18110714 74.85043993 0.0428069 73.93383514 -2 71 C-2.49447632 67.91293335 -2.49447632 67.91293335 -2.48583984 64.24365234 C-2.48963654 63.57328445 -2.49343323 62.90291656 -2.49734497 62.2122345 C-2.50473698 60.0029884 -2.48339382 57.79506604 -2.4609375 55.5859375 C-2.45855266 54.04945022 -2.45764784 52.51295999 -2.4581604 50.97647095 C-2.45503502 47.76016932 -2.43848734 44.54431431 -2.41162109 41.328125 C-2.3775841 37.20078244 -2.36999424 33.07392912 -2.37151146 28.94646263 C-2.37096836 25.77578034 -2.36001191 22.60520548 -2.34550858 19.43455887 C-2.33913543 17.91228676 -2.33520047 16.39000247 -2.33372116 14.86771774 C-2.32939672 12.744119 -2.31191694 10.62104502 -2.29052734 8.49755859 C-2.28290375 7.28828705 -2.27528015 6.0790155 -2.26742554 4.83309937 C-2 2 -2 2 0 0 Z " fill="#3BDBF2" transform="translate(17,10)"/>
<path d="M0 0 C0.33 0 0.66 0 1 0 C1 19.47 1 38.94 1 59 C2.98 59 4.96 59 7 59 C8.26226416 63.29169814 7.7295879 65.90360761 6 70 C3.35334541 72.64665459 2.11565935 72.26321979 -1.57958984 72.29052734 C-3.33183365 72.3096669 -3.33183365 72.3096669 -5.11947632 72.32919312 C-6.38715851 72.33141876 -7.6548407 72.33364441 -8.9609375 72.3359375 C-10.25818756 72.3425943 -11.55543762 72.3492511 -12.89199829 72.35610962 C-15.64092331 72.36809416 -18.38972257 72.37178933 -21.13867188 72.37060547 C-24.65850272 72.37040238 -28.17752519 72.3976871 -31.69716454 72.43214989 C-35.05593465 72.45976205 -38.4145553 72.45856811 -41.7734375 72.4609375 C-43.03707123 72.47530853 -44.30070496 72.48967957 -45.60263062 72.50448608 C-46.77709747 72.49833282 -47.95156433 72.49217957 -49.16162109 72.48583984 C-50.7114418 72.4901149 -50.7114418 72.4901149 -52.29257202 72.49447632 C-55.73836623 71.86514706 -56.93937649 70.79727747 -59 68 C-59 66.68 -59 65.36 -59 64 C-58.16855469 63.97421875 -57.33710937 63.9484375 -56.48046875 63.921875 C-54.85044922 63.83679688 -54.85044922 63.83679688 -53.1875 63.75 C-52.10855469 63.70359375 -51.02960937 63.6571875 -49.91796875 63.609375 C-46.88487142 63.32442688 -46.88487142 63.32442688 -45.6027832 60.99291992 C-44 59 -44 59 -41.87109375 58.49829102 C-40.66646484 58.50107056 -40.66646484 58.50107056 -39.4375 58.50390625 C-38.55835937 58.50326172 -37.67921875 58.50261719 -36.7734375 58.50195312 C-35.40058594 58.53192383 -35.40058594 58.53192383 -34 58.5625 C-33.08476563 58.55541016 -32.16953125 58.54832031 -31.2265625 58.54101562 C-24.46117015 58.60549517 -24.46117015 58.60549517 -22.21484375 60.52709961 C-21.81394531 61.01315674 -21.41304687 61.49921387 -21 62 C-20.34 61.01 -19.68 60.02 -19 59 C-16.6171875 58.70703125 -16.6171875 58.70703125 -13.875 58.8125 C-12.96492188 58.83957031 -12.05484375 58.86664063 -11.1171875 58.89453125 C-10.41851562 58.92933594 -9.71984375 58.96414062 -9 59 C-9 59.99 -9 60.98 -9 62 C-6.69 62.33 -4.38 62.66 -2 63 C-0.94151824 59.82455471 -0.84365886 57.48932514 -0.79467773 54.15161133 C-0.77473251 52.9505928 -0.75478729 51.74957428 -0.73423767 50.51216125 C-0.71752518 49.21521835 -0.70081268 47.91827545 -0.68359375 46.58203125 C-0.66301707 45.2410977 -0.64202041 43.90017054 -0.62062073 42.55924988 C-0.56547373 39.03298111 -0.51603206 35.50665452 -0.46777344 31.98028564 C-0.4175045 28.38068507 -0.36184661 24.78116827 -0.30664062 21.18164062 C-0.19914929 14.12116648 -0.09768435 7.06061718 0 0 Z " fill="#1B85B6" transform="translate(74,13)"/>
<path d="M0 0 C1.98 0 3.96 0 6 0 C6.66 0.99 7.32 1.98 8 3 C10.61196291 3.51012565 10.61196291 3.51012565 13.6640625 3.51171875 C14.78554688 3.54716797 15.90703125 3.58261719 17.0625 3.61914062 C18.8259375 3.65297852 18.8259375 3.65297852 20.625 3.6875 C21.80835937 3.72166016 22.99171875 3.75582031 24.2109375 3.79101562 C27.1405306 3.87370575 30.0698164 3.94278714 33 4 C30 6 30 6 28 6 C28 6.66 28 7.32 28 8 C21.4 8 14.8 8 8 8 C8 9.32 8 10.64 8 12 C8.68102783 11.97905273 9.36205566 11.95810547 10.0637207 11.93652344 C13.14649722 11.85342548 16.22903837 11.80136046 19.3125 11.75 C20.38435547 11.71648438 21.45621094 11.68296875 22.56054688 11.6484375 C23.58857422 11.63554688 24.61660156 11.62265625 25.67578125 11.609375 C26.62364502 11.58842773 27.57150879 11.56748047 28.5480957 11.54589844 C31 12 31 12 32.83276367 14.02441406 C33.21795166 14.67635742 33.60313965 15.32830078 34 16 C33.22285645 16.02505615 32.44571289 16.0501123 31.64501953 16.07592773 C28.13816931 16.19166796 24.63160255 16.31449352 21.125 16.4375 C19.90167969 16.47681641 18.67835937 16.51613281 17.41796875 16.55664062 C16.25136719 16.59853516 15.08476562 16.64042969 13.8828125 16.68359375 C12.80402832 16.72025146 11.72524414 16.75690918 10.61376953 16.79467773 C8.01930464 16.83376643 8.01930464 16.83376643 6 18 C4.68 17.67 3.36 17.34 2 17 C1.67 20.3 1.34 23.6 1 27 C0.67 27 0.34 27 0 27 C0 18.09 0 9.18 0 0 Z M34 11 C34.66 11.33 35.32 11.66 36 12 C35.01 12.66 34.02 13.32 33 14 C33.33 13.01 33.66 12.02 34 11 Z " fill="#2EE5F9" transform="translate(15,36)"/>
<path d="M0 0 C8.91 0 17.82 0 27 0 C26.67 1.65 26.34 3.3 26 5 C24.02 5.66 22.04 6.32 20 7 C20 8.65 20 10.3 20 12 C13.4 12 6.8 12 0 12 C0 8.04 0 4.08 0 0 Z " fill="#22D4EF" transform="translate(23,52)"/>
<path d="M0 0 C13.86 0 27.72 0 42 0 C42 1.98 42 3.96 42 6 C28.14 6 14.28 6 0 6 C0 4.02 0 2.04 0 0 Z " fill="#1DA3D5" transform="translate(23,20)"/>
<path d="M0 0 C7.4931061 -0.06954805 14.98617868 -0.1228356 22.47953415 -0.15543652 C25.95912843 -0.1710844 29.43850168 -0.19230607 32.91796875 -0.22631836 C36.91929227 -0.26518654 40.92038406 -0.27971639 44.921875 -0.29296875 C46.16990906 -0.30845261 47.41794312 -0.32393646 48.70379639 -0.33988953 C49.86469788 -0.34011612 51.02559937 -0.34034271 52.22167969 -0.34057617 C53.24316101 -0.34723801 54.26464233 -0.35389984 55.31707764 -0.36076355 C58.37236279 0.05007037 59.73775465 0.95881034 62 3 C54.35923782 3.0694906 46.71850838 3.1228064 39.07750225 3.15543652 C35.52950064 3.17109693 31.98171513 3.19234151 28.43383789 3.22631836 C24.35561033 3.26513007 20.27760999 3.27970602 16.19921875 3.29296875 C14.92414963 3.30845261 13.64908051 3.32393646 12.33537292 3.33988953 C11.15437515 3.34011612 9.97337738 3.34034271 8.7565918 3.34057617 C7.19439156 3.35056892 7.19439156 3.35056892 5.60063171 3.36076355 C2.65949354 2.95276443 1.78319829 2.31258565 0 0 Z " fill="#2D5B74" transform="translate(16,82)"/>
<path d="M0 0 C0.33 0 0.66 0 1 0 C1 19.47 1 38.94 1 59 C2.98 59 4.96 59 7 59 C8.25190641 63.25648179 7.91502155 65.9875739 6 70 C4 70.9375 4 70.9375 2 71 C1.34 70.67 0.68 70.34 0 70 C0 46.9 0 23.8 0 0 Z " fill="#3183BB" transform="translate(74,13)"/>
<path d="M0 0 C2.0023978 0.26260955 4.0045878 0.5273922 6.00390625 0.8125 C8.22732186 1.02135313 9.86839344 0.60903045 12 0 C12.9590625 0.2475 12.9590625 0.2475 13.9375 0.5 C16.06611883 1.16947837 16.06611883 1.16947837 18.5 0.5 C21.16173663 -0.03234733 22.43107563 0.33705178 25 1 C25.66 0.835 26.32 0.67 27 0.5 C29 0 29 0 30.9375 0.5 C33.56131275 1.13607582 35.38558889 0.5882425 38 0 C42 0 42 0 45.9375 0.5625 C49.19220808 1.00051679 51.80151877 0.89957285 55 0 C55 0.66 55 1.32 55 2 C50.62282937 4.25490608 47.76969245 3.78049513 43 3 C41.66216607 3.31478446 40.32796291 3.64587656 39 4 C37.33333333 3.66666667 35.66666667 3.33333333 34 3 C32.66431979 3.32380126 31.33076989 3.65657551 30 4 C28.66666667 3.66666667 27.33333333 3.33333333 26 3 C25.34 3.165 24.68 3.33 24 3.5 C22 4 22 4 20.0625 3.5 C17.93388117 2.83052163 17.93388117 2.83052163 15.5 3.5 C12.83826337 4.03234733 11.56892437 3.66294822 9 3 C8.34 3.165 7.68 3.33 7 3.5 C5 4 5 4 2.9375 3.4375 C2.298125 3.293125 1.65875 3.14875 1 3 C0.01 3.66 -0.98 4.32 -2 5 C-1.125 1.125 -1.125 1.125 0 0 Z " fill="#B5FDFE" transform="translate(17,10)"/>
<path d="M0 0 C8.58 0 17.16 0 26 0 C26 1.32 26 2.64 26 4 C17.42 4 8.84 4 0 4 C0 2.68 0 1.36 0 0 Z " fill="#1869AB" transform="translate(23,52)"/>
<path d="M0 0 C8.58 0 17.16 0 26 0 C26 1.32 26 2.64 26 4 C17.42 4 8.84 4 0 4 C0 2.68 0 1.36 0 0 Z " fill="#1B87C5" transform="translate(23,36)"/>
<path d="M0 0 C6.6 0 13.2 0 20 0 C20 1.32 20 2.64 20 4 C13.4 4 6.8 4 0 4 C0 2.68 0 1.36 0 0 Z " fill="#1764A2" transform="translate(23,60)"/>
<path d="M0 0 C6.6 0 13.2 0 20 0 C20 1.32 20 2.64 20 4 C13.4 4 6.8 4 0 4 C0 2.68 0 1.36 0 0 Z " fill="#1A78BA" transform="translate(23,44)"/>
<path d="M0 0 C5.94 0 11.88 0 18 0 C18 1.32 18 2.64 18 4 C12.06 4 6.12 4 0 4 C0 2.68 0 1.36 0 0 Z " fill="#124176" transform="translate(31,73)"/>
<path d="M0 0 C0.33 0 0.66 0 1 0 C1 22.77 1 45.54 1 69 C0.67 69 0.34 69 0 69 C0 46.23 0 23.46 0 0 Z " fill="#4DDFF2" transform="translate(13,12)"/>
<path d="M0 0 C0.33 0.99 0.66 1.98 1 3 C2.98 3 4.96 3 7 3 C7 3.99 7 4.98 7 6 C5.02 6.33 3.04 6.66 1 7 C1.165 8.27875 1.33 9.5575 1.5 10.875 C2.07041736 15.9284158 2.09543708 20.92062649 2 26 C1.01 26.33 0.02 26.66 -1 27 C-1.12224626 17.9401941 -0.83930594 9.02253886 0 0 Z " fill="#22DAF5" transform="translate(16,50)"/>
<path d="M0 0 C0.33 0 0.66 0 1 0 C1 18.81 1 37.62 1 57 C2.32 57.33 3.64 57.66 5 58 C3.35 58 1.7 58 0 58 C0 38.86 0 19.72 0 0 Z " fill="#30AAD6" transform="translate(76,13)"/>
<path d="M0 0 C19.47 0 38.94 0 59 0 C59 0.33 59 0.66 59 1 C39.53 1 20.06 1 0 1 C0 0.67 0 0.34 0 0 Z " fill="#365767" transform="translate(19,86)"/>
<path d="M0 0 C0.66 0.33 1.32 0.66 2 1 C1.01 1.66 0.02 2.32 -1 3 C-0.67 2.01 -0.34 1.02 0 0 Z M-25 1 C-21.39610336 0.88398996 -17.79268533 0.81281592 -14.1875 0.75 C-13.16333984 0.71648438 -12.13917969 0.68296875 -11.08398438 0.6484375 C-10.10107422 0.63554688 -9.11816406 0.62265625 -8.10546875 0.609375 C-7.19949951 0.58842773 -6.29353027 0.56748047 -5.36010742 0.54589844 C-3 1 -3 1 -1.1809082 3.02441406 C-0.7912085 3.67635742 -0.40150879 4.32830078 0 5 C-2.97 5 -5.94 5 -9 5 C-9 4.34 -9 3.68 -9 3 C-14.28 2.67 -19.56 2.34 -25 2 C-25 1.67 -25 1.34 -25 1 Z " fill="#23DDF5" transform="translate(49,47)"/>
<path d="M0 0 C3.3 0 6.6 0 10 0 C10 1.65 10 3.3 10 5 C7.03 5 4.06 5 1 5 C0.67 3.35 0.34 1.7 0 0 Z " fill="#144B7D" transform="translate(55,72)"/>
<path d="M0 0 C0.66 0.66 1.32 1.32 2 2 C3.93257855 2.36831081 3.93257855 2.36831081 6.1328125 2.4140625 C7.34130859 2.47207031 7.34130859 2.47207031 8.57421875 2.53125 C9.83685547 2.57765625 9.83685547 2.57765625 11.125 2.625 C11.97449219 2.66367188 12.82398437 2.70234375 13.69921875 2.7421875 C15.79911684 2.83656494 17.89952891 2.91937586 20 3 C20 3.33 20 3.66 20 4 C9.44 4 -1.12 4 -12 4 C-12.33 4.99 -12.66 5.98 -13 7 C-13.33 5.68 -13.66 4.36 -14 3 C-13.15695312 2.95101562 -12.31390625 2.90203125 -11.4453125 2.8515625 C-10.34960938 2.77679688 -9.25390625 2.70203125 -8.125 2.625 C-6.48917969 2.52058594 -6.48917969 2.52058594 -4.8203125 2.4140625 C-1.86953526 2.26746509 -1.86953526 2.26746509 0 0 Z " fill="#22A6D2" transform="translate(29,74)"/>
<path d="M0 0 C1.9747983 0.26330644 3.94941135 0.52833363 5.921875 0.80859375 C8.4415988 1.04067357 10.57210377 0.68284581 13 0 C13 0.66 13 1.32 13 2 C8.62282937 4.25490608 5.76969245 3.78049513 1 3 C-0.0828125 3.309375 -0.0828125 3.309375 -1.1875 3.625 C-3 4 -3 4 -5.25 2.5625 C-5.8275 2.046875 -6.405 1.53125 -7 1 C-5.5459375 1.0309375 -5.5459375 1.0309375 -4.0625 1.0625 C-1.12534105 1.35618499 -1.12534105 1.35618499 0 0 Z " fill="#92FAFD" transform="translate(59,10)"/>
<path d="M0 0 C4.95 0 9.9 0 15 0 C15 0.99 15 1.98 15 3 C13.06318839 3.08107583 11.1254066 3.13922475 9.1875 3.1875 C8.10855469 3.22230469 7.02960937 3.25710937 5.91796875 3.29296875 C3 3 3 3 0 0 Z " fill="#165394" transform="translate(28,61)"/>
<path d="M0 0 C1.98 0 3.96 0 6 0 C6 1.32 6 2.64 6 4 C4.02 4 2.04 4 0 4 C0 2.68 0 1.36 0 0 Z " fill="#175B96" transform="translate(59,60)"/>
<path d="M0 0 C1.98 0 3.96 0 6 0 C6 1.32 6 2.64 6 4 C4.02 4 2.04 4 0 4 C0 2.68 0 1.36 0 0 Z " fill="#1B7FBD" transform="translate(59,36)"/>
<path d="M0 0 C1.65 0 3.3 0 5 0 C5 1.32 5 2.64 5 4 C3.35 4 1.7 4 0 4 C0 2.68 0 1.36 0 0 Z " fill="#175C9D" transform="translate(59,52)"/>
<path d="M0 0 C1.65 0 3.3 0 5 0 C5 1.32 5 2.64 5 4 C3.35 4 1.7 4 0 4 C0 2.68 0 1.36 0 0 Z " fill="#1769AC" transform="translate(59,44)"/>
<path d="M0 0 C0.33 0 0.66 0 1 0 C1.125 2.375 1.125 2.375 1 5 C0.34 5.66 -0.32 6.32 -1 7 C-3.125 6.625 -3.125 6.625 -5 6 C-4.360625 5.7525 -3.72125 5.505 -3.0625 5.25 C-0.81258459 4.18437567 -0.81258459 4.18437567 -0.25 1.875 C-0.1675 1.25625 -0.085 0.6375 0 0 Z " fill="#317AB0" transform="translate(80,77)"/>
<path d="M0 0 C0.33 0 0.66 0 1 0 C1.06058594 0.68707031 1.12117188 1.37414062 1.18359375 2.08203125 C1.26738281 2.98308594 1.35117187 3.88414063 1.4375 4.8125 C1.51871094 5.70582031 1.59992187 6.59914063 1.68359375 7.51953125 C1.93489767 10.12743559 1.93489767 10.12743559 3 13 C2.01 13.33 1.02 13.66 0 14 C0 9.38 0 4.76 0 0 Z " fill="#2DC3E3" transform="translate(15,63)"/>
<path d="M0 0 C1 4 1 4 1 4 Z " fill="#1D7AC1" transform="translate(82,77)"/>
<path d="M0 0 C4 1 4 1 4 1 Z " fill="#A8FDFD" transform="translate(51,8)"/>
<path d="M0 0 C4 1 4 1 4 1 Z " fill="#B0FEFE" transform="translate(34,8)"/>
<path d="" fill="#4B89BC" transform="translate(0,0)"/>
<path d="M0 0 C3 1 3 1 3 1 Z " fill="#72F7FE" transform="translate(64,10)"/>
<path d="M0 0 C3 1 3 1 3 1 Z " fill="#98FEFE" transform="translate(47,10)"/>
<path d="M0 0 C3 1 3 1 3 1 Z " fill="#93FEFE" transform="translate(39,10)"/>
<path d="M0 0 C3 1 3 1 3 1 Z " fill="#A1FEFE" transform="translate(30,10)"/>
<path d="M0 0 C3 1 3 1 3 1 Z " fill="#C6FEFE" transform="translate(22,10)"/>
<path d="M0 0 C3 1 3 1 3 1 Z " fill="#8BFCFD" transform="translate(68,8)"/>
<path d="M0 0 C3 1 3 1 3 1 Z " fill="#95FEFE" transform="translate(60,8)"/>
<path d="M0 0 C3 1 3 1 3 1 Z " fill="#BBFEFE" transform="translate(43,8)"/>
<path d="M0 0 C3 1 3 1 3 1 Z " fill="#C2FEFE" transform="translate(26,8)"/>
<path d="M0 0 C3 1 3 1 3 1 Z " fill="#CAFEFE" transform="translate(18,8)"/>
<path d="M0 0 C2 1 2 1 2 1 Z " fill="#1C6578" transform="translate(17,85)"/>
<path d="" fill="#11547F" transform="translate(0,0)"/>
<path d="" fill="#2E7EBD" transform="translate(0,0)"/>
<path d="M0 0 C2 1 2 1 2 1 Z " fill="#9DFFFD" transform="translate(56,10)"/>
<path d="" fill="#427EA2" transform="translate(0,0)"/>
<path d="" fill="#1E92D3" transform="translate(0,0)"/>
<path d="" fill="#2290AD" transform="translate(0,0)"/>
<path d="" fill="#11B4D3" transform="translate(0,0)"/>
<path d="" fill="#265066" transform="translate(0,0)"/>
<path d="" fill="#1C6798" transform="translate(0,0)"/>
<path d="" fill="#56C5F6" transform="translate(0,0)"/>
<path d="" fill="#D2FEFE" transform="translate(0,0)"/>
<path d="" fill="#8AEEFC" transform="translate(0,0)"/>
<path d="" fill="#DCFEFE" transform="translate(0,0)"/>
<path d="" fill="#99F6FB" transform="translate(0,0)"/>
<path d="" fill="#8DFFFF" transform="translate(0,0)"/>
<path d="" fill="#66FFFF" transform="translate(0,0)"/>
<path d="" fill="#B3FFFF" transform="translate(0,0)"/>
<path d="" fill="#75FDFC" transform="translate(0,0)"/>
<path d="" fill="#C0FFFD" transform="translate(0,0)"/>
<path d="" fill="#6AFFFF" transform="translate(0,0)"/>
<path d="" fill="#57FFFF" transform="translate(0,0)"/>
<path d="" fill="#88FFFF" transform="translate(0,0)"/>
<path d="" fill="#E5FFFF" transform="translate(0,0)"/>
<path d="" fill="#7BFFFF" transform="translate(0,0)"/>
<path d="" fill="#B3FFFF" transform="translate(0,0)"/>
<path d="" fill="#B2E0E1" transform="translate(0,0)"/>
<path d="" fill="#D5FFFF" transform="translate(0,0)"/>
</svg>
