<?xml version="1.0" encoding="UTF-8"?>
<svg version="1.1" xmlns="http://www.w3.org/2000/svg" width="100" height="100">
<path d="M0 0 C1.65 0.33 3.3 0.66 5 1 C5.33 1.99 5.66 2.98 6 4 C19.2 4 32.4 4 46 4 C46.66 2.68 47.32 1.36 48 0 C50.4375 0.375 50.4375 0.375 53 1 C53.495 1.99 53.495 1.99 54 3 C56.02543556 3.25719817 58.05350224 3.50842122 60.08984375 3.65625 C62 4 62 4 64 6 C64.25396729 8.96044922 64.25396729 8.96044922 64.25878906 12.8046875 C64.2622937 13.50402405 64.26579834 14.2033606 64.26940918 14.92388916 C64.27822876 17.24102638 64.2723767 19.55785955 64.265625 21.875 C64.26697159 23.48160867 64.26891207 25.08821695 64.27142334 26.69482422 C64.2743749 30.06416702 64.27007597 33.43340387 64.26074219 36.80273438 C64.24934758 41.12739494 64.25590689 45.45180729 64.26788712 49.77645874 C64.27510488 53.0946643 64.27281819 56.41281075 64.26763153 59.73101807 C64.2662948 61.325867 64.26794358 62.92072125 64.27259064 64.51556396 C64.27765456 66.74229198 64.26994788 68.96861476 64.25878906 71.1953125 C64.25719788 72.46391113 64.25560669 73.73250977 64.25396729 75.03955078 C64 78 64 78 62 80 C59.03955078 80.25396729 59.03955078 80.25396729 55.1953125 80.25878906 C54.49597595 80.2622937 53.7966394 80.26579834 53.07611084 80.26940918 C50.75897362 80.27822876 48.44214045 80.2723767 46.125 80.265625 C44.51839133 80.26697159 42.91178305 80.26891207 41.30517578 80.27142334 C37.93583298 80.2743749 34.56659613 80.27007597 31.19726562 80.26074219 C26.87260506 80.24934758 22.54819271 80.25590689 18.22354126 80.26788712 C14.9053357 80.27510488 11.58718925 80.27281819 8.26898193 80.26763153 C6.674133 80.2662948 5.07927875 80.26794358 3.48443604 80.27259064 C1.25770802 80.27765456 -0.96861476 80.26994788 -3.1953125 80.25878906 C-4.46391113 80.25719788 -5.73250977 80.25560669 -7.03955078 80.25396729 C-10 80 -10 80 -12 78 C-12.25396729 75.03955078 -12.25396729 75.03955078 -12.25878906 71.1953125 C-12.2622937 70.49597595 -12.26579834 69.7966394 -12.26940918 69.07611084 C-12.27822876 66.75897362 -12.2723767 64.44214045 -12.265625 62.125 C-12.26697159 60.51839133 -12.26891207 58.91178305 -12.27142334 57.30517578 C-12.2743749 53.93583298 -12.27007597 50.56659613 -12.26074219 47.19726562 C-12.24934758 42.87260506 -12.25590689 38.54819271 -12.26788712 34.22354126 C-12.27510488 30.9053357 -12.27281819 27.58718925 -12.26763153 24.26898193 C-12.2662948 22.674133 -12.26794358 21.07927875 -12.27259064 19.48443604 C-12.27765456 17.25770802 -12.26994788 15.03138524 -12.25878906 12.8046875 C-12.25719788 11.53608887 -12.25560669 10.26749023 -12.25396729 8.96044922 C-12 6 -12 6 -10 4 C-7.95426522 3.66330615 -5.94399048 3.55930828 -3.875 3.44140625 C-1.59314755 3.1294203 -1.59314755 3.1294203 0 0 Z " fill="#1796DF" transform="translate(24,8)"/>
<path d="M0 0 C1.65 0.33 3.3 0.66 5 1 C5.33 1.99 5.66 2.98 6 4 C19.2 4 32.4 4 46 4 C46.66 2.68 47.32 1.36 48 0 C50.4375 0.375 50.4375 0.375 53 1 C53.495 1.99 53.495 1.99 54 3 C56.02543556 3.25719817 58.05350224 3.50842122 60.08984375 3.65625 C62 4 62 4 64 6 C64 10.95 64 15.9 64 21 C39.25 21 14.5 21 -11 21 C-11.86608229 17.53567086 -12.16374245 14.90061984 -12.1875 11.375 C-12.20167969 10.41335937 -12.21585938 9.45171875 -12.23046875 8.4609375 C-12 6 -12 6 -10 4 C-7.95426522 3.66330615 -5.94399048 3.55930828 -3.875 3.44140625 C-1.59314755 3.1294203 -1.59314755 3.1294203 0 0 Z " fill="#0567B8" transform="translate(24,8)"/>
<path d="M0 0 C2.625 0.375 2.625 0.375 5 1 C6.06671952 4.20015856 5.94845472 5.88544294 5.5625 9.1875 C5.46066406 10.08855469 5.35882813 10.98960938 5.25390625 11.91796875 C5.12822266 12.94857422 5.12822266 12.94857422 5 14 C1.25 15.125 1.25 15.125 -1 14 C-1.484375 11.34765625 -1.484375 11.34765625 -1.75 8.0625 C-1.84796875 6.98097656 -1.9459375 5.89945313 -2.046875 4.78515625 C-2 2 -2 2 0 0 Z " fill="#3AC8F2" transform="translate(72,8)"/>
<path d="M0 0 C1.65 0.33 3.3 0.66 5 1 C6.06671952 4.20015856 5.94845472 5.88544294 5.5625 9.1875 C5.46066406 10.08855469 5.35882812 10.98960938 5.25390625 11.91796875 C5.12822266 12.94857422 5.12822266 12.94857422 5 14 C3.35 14.33 1.7 14.66 0 15 C-1.18495796 12.63008409 -1.3899818 10.69379733 -1.6875 8.0625 C-1.84798828 6.74958984 -1.84798828 6.74958984 -2.01171875 5.41015625 C-2 3 -2 3 0 0 Z " fill="#3BC8F2" transform="translate(24,8)"/>
<path d="M0 0 C2.05078125 0.03255208 4.1015625 0.06510417 6.15234375 0.09765625 C6.25 6.25 6.25 6.25 6.15234375 8.09765625 C5.15234375 9.09765625 5.15234375 9.09765625 1.65234375 9.22265625 C-1.84765625 9.09765625 -1.84765625 9.09765625 -2.84765625 8.09765625 C-2.97265625 4.59765625 -2.97265625 4.59765625 -2.84765625 1.09765625 C-1.84765625 0.09765625 -1.84765625 0.09765625 0 0 Z " fill="#E1F1FB" transform="translate(39.84765625,53.90234375)"/>
<path d="M0 0 C2.64 0 5.28 0 8 0 C8 2.97 8 5.94 8 9 C5.36 9 2.72 9 0 9 C0 6.03 0 3.06 0 0 Z " fill="#ECF7FC" transform="translate(21,54)"/>
<path d="M0 0 C2.97 0 5.94 0 9 0 C9 2.64 9 5.28 9 8 C6.03 8 3.06 8 0 8 C0 5.36 0 2.72 0 0 Z " fill="#EAF6FC" transform="translate(37,40)"/>
<path d="M0 0 C2.64 0 5.28 0 8 0 C8 2.97 8 5.94 8 9 C5.66705225 9.04241723 3.33297433 9.04092937 1 9 C0 8 0 8 -0.09765625 6.15234375 C-0.06510417 4.1015625 -0.03255208 2.05078125 0 0 Z " fill="#E9F5FC" transform="translate(54,54)"/>
<path d="M0 0 C2.64 0 5.28 0 8 0 C8 2.64 8 5.28 8 8 C5.36 8 2.72 8 0 8 C0 5.36 0 2.72 0 0 Z " fill="#F8FCFE" transform="translate(54,69)"/>
<path d="M0 0 C2.64 0 5.28 0 8 0 C8 2.64 8 5.28 8 8 C5.36 8 2.72 8 0 8 C0 5.36 0 2.72 0 0 Z " fill="#F8FCFE" transform="translate(38,69)"/>
<path d="M0 0 C2.64 0 5.28 0 8 0 C8 2.64 8 5.28 8 8 C5.36 8 2.72 8 0 8 C0 5.36 0 2.72 0 0 Z " fill="#FEFEFE" transform="translate(21,69)"/>
<path d="M0 0 C2.64 0 5.28 0 8 0 C8 2.64 8 5.28 8 8 C5.36 8 2.72 8 0 8 C0 5.36 0 2.72 0 0 Z " fill="#F8FBFE" transform="translate(71,54)"/>
<path d="M0 0 C2.64 0 5.28 0 8 0 C8 2.64 8 5.28 8 8 C5.36 8 2.72 8 0 8 C0 5.36 0 2.72 0 0 Z " fill="#FBFDFE" transform="translate(71,40)"/>
<path d="M0 0 C2.64 0 5.28 0 8 0 C8 2.64 8 5.28 8 8 C5.36 8 2.72 8 0 8 C0 5.36 0 2.72 0 0 Z " fill="#F6FBFD" transform="translate(54,40)"/>
<path d="M0 0 C1.32 0.33 2.64 0.66 4 1 C2.515 4.465 2.515 4.465 1 8 C0.67 8 0.34 8 0 8 C0 5.36 0 2.72 0 0 Z " fill="#0B5A9D" transform="translate(77,12)"/>
</svg>
