<?xml version="1.0" encoding="UTF-8"?>
<svg version="1.1" xmlns="http://www.w3.org/2000/svg" width="64" height="64">
<path d="M0 0 C1.875 1.25 1.875 1.25 3 3 C3.04489388 4.66606192 3.04899842 6.33405374 3 8 C4.37285156 7.96519531 4.37285156 7.96519531 5.7734375 7.9296875 C6.96195313 7.91164063 8.15046875 7.89359375 9.375 7.875 C10.55835938 7.85179687 11.74171875 7.82859375 12.9609375 7.8046875 C16 8 16 8 18 10 C18.26069641 12.16320801 18.26069641 12.16320801 18.2746582 14.87695312 C18.28895622 16.39863098 18.28895622 16.39863098 18.30354309 17.9510498 C18.30263168 19.05001587 18.30172028 20.14898193 18.30078125 21.28125 C18.30506638 22.40567505 18.3093515 23.5301001 18.31376648 24.68859863 C18.31951719 27.0692477 18.32000462 29.44991434 18.31567383 31.83056641 C18.31251297 35.48500334 18.33596788 39.13863196 18.36132812 42.79296875 C18.36360083 45.10156147 18.36430475 47.41015639 18.36328125 49.71875 C18.372491 50.81771606 18.38170074 51.91668213 18.39118958 53.0489502 C18.38496078 54.0634021 18.37873199 55.077854 18.37231445 56.12304688 C18.37294388 57.01858276 18.3735733 57.91411865 18.3742218 58.83679199 C18.25072861 59.55065063 18.12723541 60.26450928 18 61 C14.1478084 63.56812773 10.96523118 63.28804485 6.5 63.265625 C5.66791016 63.26753845 4.83582031 63.2694519 3.97851562 63.27142334 C2.22004901 63.27278374 0.4615723 63.26909738 -1.296875 63.26074219 C-3.98981262 63.25004048 -6.68208314 63.26064221 -9.375 63.2734375 C-11.08333481 63.27211588 -12.7916692 63.26955343 -14.5 63.265625 C-15.30630859 63.26967346 -16.11261719 63.27372192 -16.94335938 63.27789307 C-20.81474692 63.2453892 -22.70466426 63.19689049 -26 61 C-26.3742218 58.83679199 -26.3742218 58.83679199 -26.37231445 56.12304688 C-26.37854324 55.10859497 -26.38477203 54.09414307 -26.39118958 53.0489502 C-26.38197983 51.94998413 -26.37277008 50.85101807 -26.36328125 49.71875 C-26.36377975 48.59432495 -26.36427826 47.4698999 -26.36479187 46.31140137 C-26.3624482 43.93072749 -26.35270257 41.55005129 -26.33618164 39.16943359 C-26.31259729 35.51507527 -26.31561765 31.86144626 -26.32226562 28.20703125 C-26.31668896 25.89843313 -26.30957916 23.58983809 -26.30078125 21.28125 C-26.30169266 20.18228394 -26.30260406 19.08331787 -26.30354309 17.9510498 C-26.29401108 16.9365979 -26.28447906 15.922146 -26.2746582 14.87695312 C-26.27005081 13.98141724 -26.26544342 13.08588135 -26.26069641 12.16320801 C-26 10 -26 10 -24 8 C-20.9609375 7.8046875 -20.9609375 7.8046875 -17.375 7.875 C-15.59222656 7.90207031 -15.59222656 7.90207031 -13.7734375 7.9296875 C-12.85820312 7.95289063 -11.94296875 7.97609375 -11 8 C-10.9175 6.88625 -10.835 5.7725 -10.75 4.625 C-10 1 -10 1 -8.3125 -0.5 C-5.21367554 -1.1700161 -3.04812543 -0.84309852 0 0 Z M-7.8125 3.1875 C-9.2888365 5.01846177 -9.2888365 5.01846177 -8.6875 7.6875 C-8.460625 8.450625 -8.23375 9.21375 -8 10 C-9.65 10.33 -11.3 10.66 -13 11 C-12.67 11.99 -12.34 12.98 -12 14 C-6.72 14 -1.44 14 4 14 C4 12.68 4 11.36 4 10 C2.68 10 1.36 10 0 10 C0.226875 9.236875 0.45375 8.47375 0.6875 7.6875 C1.2888365 5.01846177 1.2888365 5.01846177 -0.1875 3.1875 C-2.90415951 1.40761963 -5.09584049 1.40761963 -7.8125 3.1875 Z M-24 12 C-24.29864249 14.09404516 -24.29864249 14.09404516 -24.24291992 16.52563477 C-24.24599655 17.46323135 -24.24907318 18.40082794 -24.25224304 19.36683655 C-24.24505753 20.38144455 -24.23787201 21.39605255 -24.23046875 22.44140625 C-24.23001053 23.47941879 -24.22955231 24.51743134 -24.2290802 25.5868988 C-24.22605583 27.78344871 -24.21816405 29.97999643 -24.20581055 32.17651367 C-24.1875568 35.55199722 -24.18530079 38.92720664 -24.18554688 42.30273438 C-24.18063177 44.43229406 -24.17480349 46.56185187 -24.16796875 48.69140625 C-24.16685593 49.70803848 -24.1657431 50.72467072 -24.16459656 51.77210999 C-24.15821671 52.70655441 -24.15183685 53.64099884 -24.14526367 54.60375977 C-24.14145187 55.4304567 -24.13764008 56.25715363 -24.13371277 57.10890198 C-24.20680029 59.01169083 -24.20680029 59.01169083 -23 60 C-20.20006403 60.10103255 -17.42531356 60.13970088 -14.625 60.1328125 C-13.78533691 60.13376923 -12.94567383 60.13472595 -12.08056641 60.13571167 C-10.30175705 60.13639348 -8.52294523 60.13453917 -6.74414062 60.13037109 C-4.01166224 60.12502283 -1.27934824 60.13031605 1.453125 60.13671875 C3.1770837 60.13605797 4.90104229 60.13477681 6.625 60.1328125 C7.44790527 60.13483673 8.27081055 60.13686096 9.11865234 60.13894653 C12.86379866 60.4857546 12.86379866 60.4857546 16 59 C16.1034125 57.53743823 16.13850321 56.06995736 16.14526367 54.60375977 C16.15164352 53.66931534 16.15802338 52.73487091 16.16459656 51.77210999 C16.16570938 50.75547775 16.1668222 49.73884552 16.16796875 48.69140625 C16.17129715 47.65435043 16.17462555 46.61729462 16.17805481 45.54881287 C16.1831286 43.35049891 16.185463 41.15217723 16.18530273 38.95385742 C16.18748838 35.58043799 16.20563714 32.20734583 16.22460938 28.83398438 C16.2275433 26.70312612 16.2295281 24.57226631 16.23046875 22.44140625 C16.23765427 21.42679825 16.24483978 20.41219025 16.25224304 19.36683655 C16.2476281 17.96044167 16.2476281 17.96044167 16.24291992 16.52563477 C16.24434494 15.69814224 16.24576996 14.87064972 16.24723816 14.01808167 C16.18228751 11.7717052 16.18228751 11.7717052 14 10 C10.91652174 9.83318891 10.91652174 9.83318891 8 10 C8.99 10.66 9.98 11.32 11 12 C12.66423035 13.37719727 12.66423035 13.37719727 14 15 C14.28631592 18.04902986 14.396305 20.88942097 14.36328125 23.9375 C14.36402901 25.2522229 14.36402901 25.2522229 14.36479187 26.59350586 C14.36245194 28.44614937 14.35272819 30.29879609 14.33618164 32.15136719 C14.31258961 34.98922107 14.31562115 37.82613548 14.32226562 40.6640625 C14.31668879 42.46354728 14.30957888 44.26302809 14.30078125 46.0625 C14.30214836 47.33758423 14.30214836 47.33758423 14.30354309 48.63842773 C14.23105159 54.65342262 14.23105159 54.65342262 12 58 C8.8671875 58.38818359 8.8671875 58.38818359 4.875 58.3984375 C4.1722998 58.40130768 3.46959961 58.40417786 2.74560547 58.40713501 C1.25943191 58.40917714 -0.22676843 58.40363678 -1.71289062 58.39111328 C-3.99149508 58.37505992 -6.2683259 58.39095499 -8.546875 58.41015625 C-9.98958726 58.40817384 -11.43229841 58.40433021 -12.875 58.3984375 C-14.19242188 58.39505371 -15.50984375 58.39166992 -16.8671875 58.38818359 C-17.90101562 58.26008301 -18.93484375 58.13198242 -20 58 C-22.63000199 54.05499701 -22.3056912 50.64193985 -22.30078125 46.0625 C-22.30506638 45.18601807 -22.3093515 44.30953613 -22.31376648 43.40649414 C-22.31950796 41.55388249 -22.32001138 39.70124829 -22.31567383 37.84863281 C-22.3125119 35.01067798 -22.3359816 32.17376356 -22.36132812 29.3359375 C-22.3636009 27.53645965 -22.36430472 25.73697899 -22.36328125 23.9375 C-22.372491 23.08744385 -22.38170074 22.2373877 -22.39118958 21.36157227 C-22.3443848 15.41838695 -22.3443848 15.41838695 -20.66423035 13.37719727 C-19 12 -19 12 -16 10 C-20.49304582 9.57496554 -20.49304582 9.57496554 -24 12 Z M-19 14 C-21.11834035 16.11834035 -20.16419113 20.84603374 -20.16796875 23.77734375 C-20.17129715 24.65902725 -20.17462555 25.54071075 -20.17805481 26.44911194 C-20.18312783 28.31787594 -20.18546302 30.18664904 -20.18530273 32.05541992 C-20.18748808 34.92186344 -20.20563655 37.7879216 -20.22460938 40.65429688 C-20.22754339 42.46614451 -20.22952813 44.27799398 -20.23046875 46.08984375 C-20.23765427 46.9513353 -20.24483978 47.81282684 -20.25224304 48.70042419 C-20.45360446 53.32990081 -20.45360446 53.32990081 -18 57 C-15.11912077 57.31198539 -15.11912077 57.31198539 -11.75 57.265625 C-10.5021875 57.26820312 -9.254375 57.27078125 -7.96875 57.2734375 C-6.6590625 57.26570313 -5.349375 57.25796875 -4 57.25 C-2.03546875 57.26160156 -2.03546875 57.26160156 -0.03125 57.2734375 C1.84046875 57.26957031 1.84046875 57.26957031 3.75 57.265625 C5.47476563 57.26224121 5.47476563 57.26224121 7.234375 57.25878906 C10.14199832 57.28343676 10.14199832 57.28343676 12 55 C12.17546482 51.98691049 12.23127445 49.06689546 12.1953125 46.0546875 C12.19106766 44.72716965 12.19106766 44.72716965 12.18673706 43.37283325 C12.1755224 40.54008588 12.1504157 37.70765216 12.125 34.875 C12.11497185 32.95703581 12.10584572 31.03906667 12.09765625 29.12109375 C12.07557889 24.41394124 12.04104045 19.70702384 12 15 C7.388017 13.86094375 4.51729745 14.49423418 0 16 C1.2065625 16.9590625 1.2065625 16.9590625 2.4375 17.9375 C5.65648131 21.78457522 6.34704974 25.0256204 6 30 C4.76417793 33.28955538 4.0487214 33.96751907 1 36 C-3.6531944 36.66807132 -7.69547452 36.95453084 -11.5625 34.125 C-14.22010233 30.19637047 -14.13464722 27.89272294 -13.58984375 23.265625 C-12.70194422 19.85515 -10.69660691 18.14345677 -8 16 C-11.87684087 14.80712589 -14.91621923 14 -19 14 Z M-10.7890625 21.4375 C-12.31233739 23.15196449 -12.31233739 23.15196449 -12.625 26.5625 C-12.24302382 29.9912989 -12.24302382 29.9912989 -10.375 32.375 C-7.43721938 34.38506043 -5.5603504 34.92733979 -2 35 C1.72843964 33.26655125 1.72843964 33.26655125 4 30 C4.66072542 25.45039794 4.66072542 25.45039794 2.80078125 21.4296875 C-2.21248006 17.00993571 -5.78898039 16.97042157 -10.7890625 21.4375 Z " fill="#FF9430" transform="translate(36,1)"/>
<path d="M0 0 C-0.33 0.66 -0.66 1.32 -1 2 C-4.0625 2.625 -4.0625 2.625 -7 3 C-7 5.31 -7 7.62 -7 10 C-8.32 10.33 -9.64 10.66 -11 11 C-11 11.66 -11 12.32 -11 13 C-8.03 13.495 -8.03 13.495 -5 14 C-5.99 15.485 -5.99 15.485 -7 17 C-8.0725 16.67 -9.145 16.34 -10.25 16 C-13.99731601 14.8282249 -13.99731601 14.8282249 -18 15 C-18.07410727 20.64165361 -18.12858167 26.28302447 -18.16479492 31.92504883 C-18.1798898 33.84469538 -18.20036773 35.7643074 -18.22631836 37.68383789 C-18.26267109 40.44165564 -18.27971912 43.1990178 -18.29296875 45.95703125 C-18.30845261 46.81649857 -18.32393646 47.67596588 -18.33988953 48.56147766 C-18.34011612 49.36208115 -18.34034271 50.16268463 -18.34057617 50.98754883 C-18.34723801 51.6914827 -18.35389984 52.39541656 -18.36076355 53.12068176 C-17.8965321 55.53899323 -16.84835389 56.43850535 -15 58 C-16.98 58.495 -16.98 58.495 -19 59 C-22.31002033 55.76953428 -22.37200495 52.92749038 -22.44248962 48.55078125 C-22.43808617 47.28814453 -22.43808617 47.28814453 -22.43359375 46 C-22.4388356 45.12730469 -22.44407745 44.25460938 -22.44947815 43.35546875 C-22.45589266 41.51303164 -22.45456873 39.67055355 -22.44604492 37.828125 C-22.43752923 35.0096756 -22.46631205 32.19324951 -22.49804688 29.375 C-22.49965888 27.58333394 -22.49908137 25.79166429 -22.49609375 24 C-22.50732773 23.15824219 -22.51856171 22.31648438 -22.53013611 21.44921875 C-22.46023859 15.58067847 -22.46023859 15.58067847 -19.96899414 12.4375 C-19.31922607 11.963125 -18.66945801 11.48875 -18 11 C-19.32 11.33 -20.64 11.66 -22 12 C-22.33 25.2 -22.66 38.4 -23 52 C-23.99 52.495 -23.99 52.495 -25 53 C-25.04934154 46.91277254 -25.08569167 40.8256608 -25.10986328 34.73828125 C-25.11993712 32.66632053 -25.13359666 30.59437407 -25.15087891 28.52246094 C-25.17506664 25.54879236 -25.18646908 22.5753113 -25.1953125 19.6015625 C-25.21079636 18.20618759 -25.21079636 18.20618759 -25.22659302 16.78262329 C-25.22674408 15.92188202 -25.22689514 15.06114075 -25.22705078 14.17431641 C-25.231492 13.41486725 -25.23593323 12.65541809 -25.24050903 11.87295532 C-25 10 -25 10 -23 8 C-19.9609375 7.8046875 -19.9609375 7.8046875 -16.375 7.875 C-14.59222656 7.90207031 -14.59222656 7.90207031 -12.7734375 7.9296875 C-11.85820312 7.95289063 -10.94296875 7.97609375 -10 8 C-9.9175 6.88625 -9.835 5.7725 -9.75 4.625 C-9 1 -9 1 -7.25 -0.5 C-4.53464544 -1.10341212 -2.65997891 -0.73888303 0 0 Z " fill="#FFB334" transform="translate(35,1)"/>
<path d="M0 0 C0.33 0 0.66 0 1 0 C1.07403712 5.23271569 1.12854783 10.46512801 1.16479492 15.69824219 C1.17990173 17.47922067 1.20038835 19.26016184 1.22631836 21.04101562 C1.26261943 23.59774978 1.27970688 26.1539931 1.29296875 28.7109375 C1.30845261 29.50994476 1.32393646 30.30895203 1.33988953 31.13217163 C1.34057617 33.37646484 1.34057617 33.37646484 1 37 C-2.8521916 39.56812773 -6.03476882 39.28804485 -10.5 39.265625 C-11.33208984 39.26753845 -12.16417969 39.2694519 -13.02148438 39.27142334 C-14.77995099 39.27278374 -16.5384277 39.26909738 -18.296875 39.26074219 C-20.98981262 39.25004048 -23.68208314 39.26064221 -26.375 39.2734375 C-28.08333481 39.27211588 -29.7916692 39.26955343 -31.5 39.265625 C-32.30630859 39.26967346 -33.11261719 39.27372192 -33.94335938 39.27789307 C-37.81474692 39.2453892 -39.70466426 39.19689049 -43 37 C-43.40843923 34.28796348 -43.13336867 31.7562858 -43 29 C-42.34 28.67 -41.68 28.34 -41 28 C-40.67 30.31 -40.34 32.62 -40 35 C-27.46 35 -14.92 35 -2 35 C-1.71066243 23.85572345 -1.71066243 23.85572345 -1.43188477 12.71118164 C-1.39377644 11.3191626 -1.35530856 9.92715333 -1.31640625 8.53515625 C-1.29993042 7.80615112 -1.28345459 7.077146 -1.26647949 6.3260498 C-1.1140718 1.1140718 -1.1140718 1.1140718 0 0 Z " fill="#FF4A28" transform="translate(53,25)"/>
<path d="M0 0 C0.99 0.33 1.98 0.66 3 1 C3.0741916 6.62334306 3.12862179 12.2464008 3.16479492 17.87011719 C3.17987558 19.78292809 3.2003431 21.69570446 3.22631836 23.60839844 C3.26273347 26.3588107 3.27973349 29.10876554 3.29296875 31.859375 C3.30845261 32.71368103 3.32393646 33.56798706 3.33988953 34.44818115 C3.34085525 37.85998957 3.2626999 40.39369793 1.89648438 43.546875 C-0.93367142 45.71539808 -3.10774171 45.45226652 -6.63671875 45.390625 C-8.58481445 45.37128906 -8.58481445 45.37128906 -10.57226562 45.3515625 C-11.94402103 45.31814101 -13.31576581 45.28428123 -14.6875 45.25 C-16.07093812 45.22993376 -17.45440384 45.21168319 -18.83789062 45.1953125 C-22.22595649 45.14809207 -25.61263241 45.08224069 -29 45 C-28.67 44.34 -28.34 43.68 -28 43 C-27.21761963 42.97494385 -26.43523926 42.9498877 -25.62915039 42.92407227 C-22.10675051 42.80850212 -18.5846444 42.68560051 -15.0625 42.5625 C-13.83080078 42.52318359 -12.59910156 42.48386719 -11.33007812 42.44335938 C-10.16025391 42.40146484 -8.99042969 42.35957031 -7.78515625 42.31640625 C-6.70113525 42.27974854 -5.61711426 42.24309082 -4.50024414 42.20532227 C-2.060737 42.27635735 -2.060737 42.27635735 -1 41 C-0.8396444 37.97192956 -0.74039552 34.96414546 -0.68359375 31.93359375 C-0.66281265 31.02497086 -0.64203156 30.11634796 -0.62062073 29.18019104 C-0.55502328 26.26604054 -0.4961932 23.35179696 -0.4375 20.4375 C-0.39432446 18.46678709 -0.35071049 16.49608374 -0.30664062 14.52539062 C-0.19933157 9.68369012 -0.09809325 4.84189563 0 0 Z " fill="#FF592A" transform="translate(48,15)"/>
<path d="M0 0 C0.66 0.33 1.32 0.66 2 1 C1.01 2.485 1.01 2.485 0 4 C-0.20854708 7.01049301 -0.30400987 9.92621544 -0.30078125 12.9375 C-0.30506638 13.81398193 -0.3093515 14.69046387 -0.31376648 15.59350586 C-0.31950796 17.44611751 -0.32001138 19.29875171 -0.31567383 21.15136719 C-0.3125119 23.98932202 -0.3359816 26.82623644 -0.36132812 29.6640625 C-0.3636009 31.46354035 -0.36430472 33.26302101 -0.36328125 35.0625 C-0.372491 35.91255615 -0.38170074 36.7626123 -0.39118958 37.63842773 C-0.51322632 42.04411143 -0.51322632 42.04411143 1.52326965 45.74780273 C2.25425117 46.36764038 2.25425117 46.36764038 3 47 C1.02 47.495 1.02 47.495 -1 48 C-4.31002033 44.76953428 -4.37200495 41.92749038 -4.44248962 37.55078125 C-4.43955399 36.70902344 -4.43661835 35.86726563 -4.43359375 35 C-4.4388356 34.12730469 -4.44407745 33.25460938 -4.44947815 32.35546875 C-4.45589266 30.51303164 -4.45456873 28.67055355 -4.44604492 26.828125 C-4.43752923 24.0096756 -4.46631205 21.19324951 -4.49804688 18.375 C-4.49965888 16.58333394 -4.49908137 14.79166429 -4.49609375 13 C-4.50732773 12.15824219 -4.51856171 11.31648438 -4.53013611 10.44921875 C-4.46023859 4.58067847 -4.46023859 4.58067847 -1.96899414 1.4375 C-1.31922607 0.963125 -0.66945801 0.48875 0 0 Z " fill="#FF9331" transform="translate(17,12)"/>
<path d="M0 0 C7.26 0 14.52 0 22 0 C22 0.99 22 1.98 22 3 C14.74 3 7.48 3 0 3 C0 2.01 0 1.02 0 0 Z " fill="#FF5F2A" transform="translate(23,45)"/>
<path d="M0 0 C7.26 0 14.52 0 22 0 C22 0.99 22 1.98 22 3 C14.74 3 7.48 3 0 3 C0 2.01 0 1.02 0 0 Z " fill="#FF6F2D" transform="translate(23,39)"/>
<path d="M0 0 C7.26 0 14.52 0 22 0 C22 0.66 22 1.32 22 2 C14.74 2 7.48 2 0 2 C0 1.34 0 0.68 0 0 Z " fill="#FF542A" transform="translate(23,52)"/>
<path d="M0 0 C0.99 0.33 1.98 0.66 3 1 C3 1.99 3 2.98 3 4 C1.68 4 0.36 4 -1 4 C-0.67 2.68 -0.34 1.36 0 0 Z " fill="#FF8D30" transform="translate(31,27)"/>
<path d="M0 0 C0.66 0 1.32 0 2 0 C2 0.99 2 1.98 2 3 C1.34 3 0.68 3 0 3 C0 2.01 0 1.02 0 0 Z " fill="#FF8530" transform="translate(19,39)"/>
<path d="M0 0 C0.66 0 1.32 0 2 0 C2 0.99 2 1.98 2 3 C1.34 3 0.68 3 0 3 C0 2.01 0 1.02 0 0 Z " fill="#FF8730" transform="translate(36,25)"/>
<path d="M0 0 C0.66 0 1.32 0 2 0 C2 0.99 2 1.98 2 3 C1.34 3 0.68 3 0 3 C0 2.01 0 1.02 0 0 Z " fill="#FF9532" transform="translate(26,25)"/>
<path d="M0 0 C0.66 0 1.32 0 2 0 C2 0.66 2 1.32 2 2 C1.34 2 0.68 2 0 2 C0 1.34 0 0.68 0 0 Z " fill="#FF682C" transform="translate(19,52)"/>
<path d="M0 0 C0.66 0 1.32 0 2 0 C2 0.66 2 1.32 2 2 C1.34 2 0.68 2 0 2 C0 1.34 0 0.68 0 0 Z " fill="#FF752D" transform="translate(19,46)"/>
</svg>
